<?xml version="1.0"?><!DOCTYPE svg  PUBLIC '-//W3C//DTD SVG 1.1//EN'  'http://www.w3.org/Graphics/SVG/1.1/DTD/svg11.dtd'><svg aria-labelledby="simpleicons-github-icon" enable-background="new 0 0 24 24" height="3.33333in" role="img" style="shape-rendering:geometricPrecision; text-rendering:geometricPrecision; image-rendering:optimizeQuality; fill-rule:evenodd; clip-rule:evenodd" version="1.1" viewBox="0 0 3333 3333" width="3.33333in" xml:space="preserve" xmlns="http://www.w3.org/2000/svg" xmlns:xlink="http://www.w3.org/1999/xlink"><defs><style type="text/css">
   <![CDATA[
    .fil0 {fill:black}
    .fil1 {fill:white}
   ]]>
  </style></defs><g id="Layer_x0020_1"><circle class="fil0" cx="1667" cy="1667" r="1667"/><g id="_809658096"><path class="fil1" d="M1667 786c-499,0 -904,404 -904,903 0,399 259,738 618,857 45,8 62,-19 62,-43 0,-22 -1,-79 -1,-154 -252,54 -305,-121 -305,-121 -41,-104 -100,-132 -100,-132 -82,-56 6,-55 6,-55 91,6 139,93 139,93 80,138 211,98 263,75 8,-58 31,-98 57,-121 -201,-22 -412,-100 -412,-446 0,-99 35,-179 93,-243 -10,-22 -40,-114 8,-239 0,0 76,-24 249,93 72,-20 149,-30 225,-30 77,0 154,10 226,30 172,-117 248,-93 248,-93 48,125 18,217 9,239 57,64 92,144 92,243 0,347 -211,423 -412,445 32,28 61,83 61,168 0,120 -1,217 -1,247 0,24 16,52 62,43 361,-119 620,-457 620,-856 0,-499 -405,-903 -903,-903z"/></g></g></svg>